{
  "source": "C:\\Users\\Peter\\Desktop\\stuff\\MIUN\\quantitative_research\\video_compression\\videos\\HEVC_CLASS_B\\Cactus_1920x1080_50.y4m",
  "output": "C:\\Users\\Peter\\Desktop\\stuff\\MIUN\\quantitative_research\\video_compression\\compressed_videos\\HEVC_CLASS_B\\av1\\4\\Cactus_1920x1080_50_av1.mkv",
  "codec": "av1",
  "ok": "Input #0, yuv4mpegpipe, from 'C:\\Users\\Peter\\Desktop\\stuff\\MIUN\\quantitative_research\\video_compression\\videos\\HEVC_CLASS_B\\Cactus_1920x1080_50.y4m':\n  Duration: 00:00:10.00, start: 0.000000, bitrate: 1244162 kb/s\n  Stream #0:0: Video: rawvideo (I420 / 0x30323449), yuv420p(progressive), 1920x1080, 50 fps, 50 tbr, 50 tbn\n[out#0/matroska @ 0000020f4fe89080] Codec AVOption b:a (set bitrate (in bits/s)) has not been used for any stream. The most likely reason is either wrong type (e.g. a video option with no video streams) or that it is a private option of some decoder which was not actually used for any stream.\nStream mapping:\n  Stream #0:0 -> #0:0 (rawvideo (native) -> av1 (libsvtav1))\nPress [q] to stop, [?] for help\nSvt[info]: -------------------------------------------\nSvt[info]: SVT [version]:\tSVT-AV1 Encoder Lib v3.1.0-19-g6ecfe8ec\nSvt[info]: SVT [build]  :\tGCC 15.2.0\t 64 bit\nSvt[info]: LIB Build date: Aug 17 2025 11:37:13\nSvt[info]: -------------------------------------------\n[libsvtav1 @ 0000020f4fe8c0c0] Specified chroma sample location center is unsupported on the AV1 bit stream level. Usage of a container that allows passing this information - such as Matroska - is recommended.\nSvt[info]: Level of Parallelism: 5\nSvt[info]: Number of PPCS 93\nSvt[info]: [asm level on system : up to avx2]\nSvt[info]: [asm level selected : up to avx2]\nSvt[info]: -------------------------------------------\nSvt[info]: SVT [config]: main profile\ttier (auto)\tlevel (auto)\nSvt[info]: SVT [config]: width / height / fps numerator / fps denominator \t\t: 1920 / 1080 / 50 / 1\nSvt[info]: SVT [config]: bit-depth / color format \t\t\t\t\t: 8 / YUV420\nSvt[info]: SVT [config]: preset / tune / pred struct \t\t\t\t\t: 4 / PSNR / random access\nSvt[info]: SVT [config]: gop size / mini-gop size / key-frame type \t\t\t: 321 / 16 / key frame\nSvt[info]: SVT [config]: BRC mode / target bitrate (kbps)\t\t\t\t: VBR / 4000 \nSvt[info]: SVT [config]: AQ mode / Variance Boost \t\t\t\t\t: 2 / 0\nSvt[info]: SVT [config]: sharpness / luminance-based QP bias \t\t\t\t: 0 / 0\nSvt[info]: SVT [config]: QP scale compress strength \t\t\t\t\t: 0\nSvt[info]: -------------------------------------------\nOutput #0, matroska, to 'C:\\Users\\Peter\\Desktop\\stuff\\MIUN\\quantitative_research\\video_compression\\compressed_videos\\HEVC_CLASS_B\\av1\\4\\Cactus_1920x1080_50_av1.mkv':\n  Metadata:\n    encoder         : Lavf62.3.100\n  Stream #0:0: Video: av1 (AV01 / 0x31305641), yuv420p(tv, progressive), 1920x1080, q=2-31, 4000 kb/s, 50 fps, 1k tbn\n    Metadata:\n      encoder         : Lavc62.11.100 libsvtav1\n    Side data:\n      cpb: bitrate max/min/avg: 0/0/4000000 buffer size: 4000000 vbv_delay: N/A\nframe=    0 fps=0.0 q=0.0 size=       0KiB time=N/A bitrate=N/A speed=N/A elapsed=0:00:04.62    \nframe=    0 fps=0.0 q=0.0 size=       0KiB time=N/A bitrate=N/A speed=N/A elapsed=0:00:05.13    \nframe=    0 fps=0.0 q=0.0 size=       0KiB time=N/A bitrate=N/A speed=N/A elapsed=0:00:05.64    \nframe=    0 fps=0.0 q=0.0 size=       0KiB time=N/A bitrate=N/A speed=N/A elapsed=0:00:06.15    \nframe=    0 fps=0.0 q=0.0 size=       0KiB time=N/A bitrate=N/A speed=N/A elapsed=0:00:06.67    \nframe=    0 fps=0.0 q=0.0 size=       0KiB time=N/A bitrate=N/A speed=N/A elapsed=0:00:07.19    \nframe=    0 fps=0.0 q=0.0 size=       0KiB time=N/A bitrate=N/A speed=N/A elapsed=0:00:07.70    \nframe=    0 fps=0.0 q=0.0 size=       0KiB time=N/A bitrate=N/A speed=N/A elapsed=0:00:08.22    \nframe=    0 fps=0.0 q=0.0 size=       0KiB time=N/A bitrate=N/A speed=N/A elapsed=0:00:08.73    \nframe=    0 fps=0.0 q=0.0 size=       0KiB time=N/A bitrate=N/A speed=N/A elapsed=0:00:09.25    \nframe=    0 fps=0.0 q=0.0 size=       0KiB time=N/A bitrate=N/A speed=N/A elapsed=0:00:09.77    \nframe=    0 fps=0.0 q=0.0 size=       0KiB time=N/A bitrate=N/A speed=N/A elapsed=0:00:10.28    \nframe=    0 fps=0.0 q=0.0 size=       0KiB time=N/A bitrate=N/A speed=N/A elapsed=0:00:10.80    \nframe=    0 fps=0.0 q=0.0 size=       0KiB time=N/A bitrate=N/A speed=N/A elapsed=0:00:11.31    \nframe=    0 fps=0.0 q=0.0 size=       0KiB time=N/A bitrate=N/A speed=N/A elapsed=0:00:11.82    \nframe=    0 fps=0.0 q=0.0 size=       0KiB time=N/A bitrate=N/A speed=N/A elapsed=0:00:12.34    \nframe=    0 fps=0.0 q=0.0 size=       0KiB time=N/A bitrate=N/A speed=N/A elapsed=0:00:12.87    \nframe=    0 fps=0.0 q=0.0 size=       0KiB time=N/A bitrate=N/A speed=N/A elapsed=0:00:13.37    \nframe=    0 fps=0.0 q=0.0 size=       0KiB time=N/A bitrate=N/A speed=N/A elapsed=0:00:13.90    \nframe=    0 fps=0.0 q=0.0 size=       0KiB time=N/A bitrate=N/A speed=N/A elapsed=0:00:14.40    \nframe=    0 fps=0.0 q=0.0 size=       0KiB time=N/A bitrate=N/A speed=N/A elapsed=0:00:14.92    \nframe=    0 fps=0.0 q=0.0 size=       0KiB time=N/A bitrate=N/A speed=N/A elapsed=0:00:15.44    \nframe=    0 fps=0.0 q=0.0 size=       0KiB time=N/A bitrate=N/A speed=N/A elapsed=0:00:15.96    \nframe=    0 fps=0.0 q=0.0 size=       0KiB time=N/A bitrate=N/A speed=N/A elapsed=0:00:16.48    \nframe=    0 fps=0.0 q=0.0 size=       0KiB time=N/A bitrate=N/A speed=N/A elapsed=0:00:16.99    \nframe=    0 fps=0.0 q=0.0 size=       0KiB time=N/A bitrate=N/A speed=N/A elapsed=0:00:17.51    \nframe=    0 fps=0.0 q=0.0 size=       0KiB time=N/A bitrate=N/A speed=N/A elapsed=0:00:18.02    \nframe=    0 fps=0.0 q=0.0 size=       0KiB time=N/A bitrate=N/A speed=N/A elapsed=0:00:18.53    \nframe=    0 fps=0.0 q=0.0 size=       0KiB time=N/A bitrate=N/A speed=N/A elapsed=0:00:19.04    \nframe=    0 fps=0.0 q=0.0 size=       0KiB time=N/A bitrate=N/A speed=N/A elapsed=0:00:19.56    \nframe=    0 fps=0.0 q=0.0 size=       0KiB time=N/A bitrate=N/A speed=N/A elapsed=0:00:20.07    \nframe=    0 fps=0.0 q=0.0 size=       0KiB time=N/A bitrate=N/A speed=N/A elapsed=0:00:20.59    \nframe=    0 fps=0.0 q=0.0 size=       0KiB time=N/A bitrate=N/A speed=N/A elapsed=0:00:21.10    \nframe=    0 fps=0.0 q=0.0 size=       0KiB time=N/A bitrate=N/A speed=N/A elapsed=0:00:21.63    \nframe=    0 fps=0.0 q=0.0 size=       0KiB time=N/A bitrate=N/A speed=N/A elapsed=0:00:22.14    \nframe=    0 fps=0.0 q=0.0 size=       0KiB time=N/A bitrate=N/A speed=N/A elapsed=0:00:22.65    \nframe=    0 fps=0.0 q=0.0 size=       0KiB time=N/A bitrate=N/A speed=N/A elapsed=0:00:23.18    \nframe=    0 fps=0.0 q=0.0 size=       0KiB time=N/A bitrate=N/A speed=N/A elapsed=0:00:23.71    \nframe=    0 fps=0.0 q=0.0 size=       0KiB time=N/A bitrate=N/A speed=N/A elapsed=0:00:24.21    \nframe=    1 fps=0.0 q=15.0 size=       1KiB time=00:00:00.00 bitrate=N/A speed=   0x elapsed=0:00:24.74    \nframe=    1 fps=0.0 q=15.0 size=       1KiB time=00:00:00.00 bitrate=N/A speed=   0x elapsed=0:00:25.25    \nframe=    1 fps=0.0 q=15.0 size=       1KiB time=00:00:00.00 bitrate=N/A speed=   0x elapsed=0:00:25.77    \nframe=    1 fps=0.0 q=15.0 size=       1KiB time=00:00:00.00 bitrate=N/A speed=   0x elapsed=0:00:26.29    \nframe=    1 fps=0.0 q=15.0 size=       1KiB time=00:00:00.00 bitrate=N/A speed=   0x elapsed=0:00:26.81    \nframe=    1 fps=0.0 q=15.0 size=       1KiB time=00:00:00.00 bitrate=N/A speed=   0x elapsed=0:00:27.32    \nframe=    1 fps=0.0 q=15.0 size=       1KiB time=00:00:00.00 bitrate=N/A speed=   0x elapsed=0:00:27.83    \nframe=    1 fps=0.0 q=15.0 size=       1KiB time=00:00:00.00 bitrate=N/A speed=   0x elapsed=0:00:28.35    \nframe=    1 fps=0.0 q=15.0 size=       1KiB time=00:00:00.00 bitrate=N/A speed=   0x elapsed=0:00:28.86    \nframe=    1 fps=0.0 q=15.0 size=       1KiB time=00:00:00.00 bitrate=N/A speed=   0x elapsed=0:00:29.38    \nframe=    1 fps=0.0 q=15.0 size=       1KiB time=00:00:00.00 bitrate=N/A speed=   0x elapsed=0:00:29.89    \nframe=    1 fps=0.0 q=15.0 size=       1KiB time=00:00:00.00 bitrate=N/A speed=   0x elapsed=0:00:30.41    \nframe=    2 fps=0.1 q=45.0 size=       1KiB time=00:00:00.02 bitrate= 224.8kbits/s speed=0.000647x elapsed=0:00:30.92    \nframe=    3 fps=0.1 q=42.0 size=       1KiB time=00:00:00.04 bitrate= 112.4kbits/s speed=0.00127x elapsed=0:00:31.44    \nframe=    4 fps=0.1 q=45.0 size=       1KiB time=00:00:00.06 bitrate=  74.9kbits/s speed=0.00188x elapsed=0:00:31.96    \nframe=    4 fps=0.1 q=45.0 size=       1KiB time=00:00:00.06 bitrate=  74.9kbits/s speed=0.00185x elapsed=0:00:32.47    \nframe=    5 fps=0.2 q=40.0 size=       1KiB time=00:00:00.08 bitrate=  56.2kbits/s speed=0.00242x elapsed=0:00:32.99    \nframe=    6 fps=0.2 q=42.0 size=       1KiB time=00:00:00.10 bitrate=  45.0kbits/s speed=0.00298x elapsed=0:00:33.51    \nframe=    8 fps=0.2 q=41.0 size=       1KiB time=00:00:00.14 bitrate=  32.1kbits/s speed=0.00412x elapsed=0:00:34.01    \nframe=    8 fps=0.2 q=41.0 size=       1KiB time=00:00:00.14 bitrate=  32.1kbits/s speed=0.00405x elapsed=0:00:34.53    \nframe=    9 fps=0.3 q=37.0 size=       1KiB time=00:00:00.16 bitrate=  28.1kbits/s speed=0.00456x elapsed=0:00:35.05    \nframe=    9 fps=0.3 q=37.0 size=       1KiB time=00:00:00.16 bitrate=  28.1kbits/s speed=0.0045x elapsed=0:00:35.57    \nframe=   11 fps=0.3 q=41.0 size=       1KiB time=00:00:00.20 bitrate=  22.5kbits/s speed=0.00554x elapsed=0:00:36.08    \nframe=   12 fps=0.3 q=40.0 size=       1KiB time=00:00:00.22 bitrate=  20.4kbits/s speed=0.00601x elapsed=0:00:36.60    \nframe=   13 fps=0.4 q=39.0 size=       1KiB time=00:00:00.24 bitrate=  18.7kbits/s speed=0.00647x elapsed=0:00:37.11    \nframe=   14 fps=0.4 q=38.0 size=       1KiB time=00:00:00.26 bitrate=  17.3kbits/s speed=0.00691x elapsed=0:00:37.63    \nframe=   16 fps=0.4 q=38.0 size=       1KiB time=00:00:00.30 bitrate=  15.0kbits/s speed=0.00787x elapsed=0:00:38.14    \nframe=   17 fps=0.4 q=28.0 size=       1KiB time=00:00:00.32 bitrate=  14.1kbits/s speed=0.00828x elapsed=0:00:38.65    \nframe=   18 fps=0.5 q=37.0 size=       1KiB time=00:00:00.34 bitrate=  13.2kbits/s speed=0.00868x elapsed=0:00:39.17    \nframe=   19 fps=0.5 q=38.0 size=       1KiB time=00:00:00.36 bitrate=  12.5kbits/s speed=0.00907x elapsed=0:00:39.69    \nframe=   20 fps=0.5 q=36.0 size=       1KiB time=00:00:00.38 bitrate=  11.8kbits/s speed=0.00945x elapsed=0:00:40.20    \nframe=   20 fps=0.5 q=36.0 size=       1KiB time=00:00:00.38 bitrate=  11.8kbits/s speed=0.00933x elapsed=0:00:40.73    \nframe=   21 fps=0.5 q=39.0 size=       1KiB time=00:00:00.40 bitrate=  11.2kbits/s speed=0.0097x elapsed=0:00:41.24    \nframe=   22 fps=0.5 q=35.0 size=       1KiB time=00:00:00.42 bitrate=  10.7kbits/s speed=0.0101x elapsed=0:00:41.76    \nframe=   23 fps=0.5 q=38.0 size=       1KiB time=00:00:00.44 bitrate=  10.2kbits/s speed=0.0104x elapsed=0:00:42.27    \nframe=   23 fps=0.5 q=38.0 size=       1KiB time=00:00:00.44 bitrate=  10.2kbits/s speed=0.0103x elapsed=0:00:42.87    \nframe=   24 fps=0.6 q=35.0 size=       1KiB time=00:00:00.46 bitrate=   9.8kbits/s speed=0.0106x elapsed=0:00:43.41    \nframe=   25 fps=0.6 q=37.0 size=       1KiB time=00:00:00.48 bitrate=   9.4kbits/s speed=0.0109x elapsed=0:00:43.98    \nframe=   26 fps=0.6 q=35.0 size=       1KiB time=00:00:00.50 bitrate=   9.0kbits/s speed=0.0112x elapsed=0:00:44.53    \nframe=   27 fps=0.6 q=39.0 size=       1KiB time=00:00:00.50 bitrate=   9.0kbits/s speed=0.0111x elapsed=0:00:45.06    \nframe=   27 fps=0.6 q=39.0 size=       1KiB time=00:00:00.52 bitrate=   8.6kbits/s speed=0.0114x elapsed=0:00:45.75    \nframe=   28 fps=0.6 q=33.0 size=       1KiB time=00:00:00.54 bitrate=   8.3kbits/s speed=0.0116x elapsed=0:00:46.37    \nframe=   29 fps=0.6 q=37.0 size=       1KiB time=00:00:00.56 bitrate=   8.0kbits/s speed=0.0119x elapsed=0:00:47.01    \nframe=   31 fps=0.7 q=39.0 size=       1KiB time=00:00:00.58 bitrate=   7.8kbits/s speed=0.0122x elapsed=0:00:47.58    \nframe=   31 fps=0.6 q=39.0 size=       1KiB time=00:00:00.60 bitrate=   7.5kbits/s speed=0.0125x elapsed=0:00:48.15    \nframe=   32 fps=0.7 q=37.0 size=       1KiB time=00:00:00.62 bitrate=   7.3kbits/s speed=0.0127x elapsed=0:00:48.67    \nframe=   33 fps=0.7 q=27.0 size=       1KiB time=00:00:00.64 bitrate=   7.0kbits/s speed=0.013x elapsed=0:00:49.23    \nframe=   35 fps=0.7 q=38.0 size=       1KiB time=00:00:00.68 bitrate=   6.6kbits/s speed=0.0137x elapsed=0:00:49.75    \nframe=   35 fps=0.7 q=38.0 size=       1KiB time=00:00:00.68 bitrate=   6.6kbits/s speed=0.0135x elapsed=0:00:50.28    \nframe=   36 fps=0.7 q=32.0 size=       1KiB time=00:00:00.70 bitrate=   6.4kbits/s speed=0.0138x elapsed=0:00:50.85    \nframe=   38 fps=0.7 q=33.0 size=       1KiB time=00:00:00.74 bitrate=   6.1kbits/s speed=0.0144x elapsed=0:00:51.38    \nframe=   38 fps=0.7 q=33.0 size=       1KiB time=00:00:00.74 bitrate=   6.1kbits/s speed=0.0142x elapsed=0:00:51.95    \nframe=   38 fps=0.7 q=33.0 size=       1KiB time=00:00:00.74 bitrate=   6.1kbits/s speed=0.0141x elapsed=0:00:52.48    \nframe=   39 fps=0.7 q=38.0 size=       1KiB time=00:00:00.76 bitrate=   5.9kbits/s speed=0.0143x elapsed=0:00:53.10    \nframe=   39 fps=0.7 q=38.0 size=       1KiB time=00:00:00.76 bitrate=   5.9kbits/s speed=0.0142x elapsed=0:00:53.61    \nframe=   40 fps=0.7 q=34.0 size=       1KiB time=00:00:00.78 bitrate=   5.8kbits/s speed=0.0144x elapsed=0:00:54.12    \nframe=   41 fps=0.8 q=36.0 size=       1KiB time=00:00:00.80 bitrate=   5.6kbits/s speed=0.0146x elapsed=0:00:54.66    \nframe=   42 fps=0.8 q=34.0 size=       1KiB time=00:00:00.82 bitrate=   5.5kbits/s speed=0.0148x elapsed=0:00:55.22    \nframe=   43 fps=0.8 q=38.0 size=       1KiB time=00:00:00.84 bitrate=   5.4kbits/s speed=0.0151x elapsed=0:00:55.75    \nframe=   44 fps=0.8 q=33.0 size=       1KiB time=00:00:00.84 bitrate=   5.4kbits/s speed=0.0149x elapsed=0:00:56.29    \nframe=   45 fps=0.8 q=37.0 size=       1KiB time=00:00:00.88 bitrate=   5.1kbits/s speed=0.0155x elapsed=0:00:56.85    \nframe=   47 fps=0.8 q=37.0 size=       1KiB time=00:00:00.92 bitrate=   4.9kbits/s speed=0.016x elapsed=0:00:57.38    \nframe=   48 fps=0.8 q=36.0 size=       1KiB time=00:00:00.94 bitrate=   4.8kbits/s speed=0.0162x elapsed=0:00:57.90    \nframe=   49 fps=0.8 q=24.0 size=       1KiB time=00:00:00.96 bitrate=   4.7kbits/s speed=0.0164x elapsed=0:00:58.43    \nframe=   50 fps=0.8 q=36.0 size=       1KiB time=00:00:00.98 bitrate=   4.6kbits/s speed=0.0166x elapsed=0:00:58.96    \nframe=   52 fps=0.9 q=33.0 size=       1KiB time=00:00:01.02 bitrate=   4.4kbits/s speed=0.0171x elapsed=0:00:59.48    \nframe=   53 fps=0.9 q=39.0 size=       1KiB time=00:00:01.04 bitrate=   4.3kbits/s speed=0.0173x elapsed=0:01:00.01    \nframe=   54 fps=0.9 q=33.0 size=       1KiB time=00:00:01.06 bitrate=   4.2kbits/s speed=0.0175x elapsed=0:01:00.54    \nframe=   55 fps=0.9 q=38.0 size=       1KiB time=00:00:01.08 bitrate=   4.2kbits/s speed=0.0177x elapsed=0:01:01.07    \nframe=   57 fps=0.9 q=36.0 size=       1KiB time=00:00:01.12 bitrate=   4.0kbits/s speed=0.0182x elapsed=0:01:01.58    \nframe=   58 fps=0.9 q=34.0 size=       1KiB time=00:00:01.14 bitrate=   3.9kbits/s speed=0.0184x elapsed=0:01:02.09    \nframe=   60 fps=1.0 q=33.0 size=       1KiB time=00:00:01.16 bitrate=   3.9kbits/s speed=0.0185x elapsed=0:01:02.63    \nframe=   61 fps=1.0 q=36.0 size=       1KiB time=00:00:01.20 bitrate=   3.7kbits/s speed=0.019x elapsed=0:01:03.14    \nframe=   63 fps=1.0 q=38.0 size=       1KiB time=00:00:01.22 bitrate=   3.7kbits/s speed=0.0192x elapsed=0:01:03.65    \nframe=   63 fps=1.0 q=38.0 size=       1KiB time=00:00:01.24 bitrate=   3.6kbits/s speed=0.0193x elapsed=0:01:04.19    \nframe=   64 fps=1.0 q=36.0 size=       1KiB time=00:00:01.26 bitrate=   3.6kbits/s speed=0.0195x elapsed=0:01:04.73    \nframe=   65 fps=1.0 q=20.0 size=       1KiB time=00:00:01.28 bitrate=   3.5kbits/s speed=0.0196x elapsed=0:01:05.29    \nframe=   67 fps=1.0 q=37.0 size=       1KiB time=00:00:01.30 bitrate=   3.5kbits/s speed=0.0197x elapsed=0:01:05.82    \nframe=   67 fps=1.0 q=37.0 size=       1KiB time=00:00:01.32 bitrate=   3.4kbits/s speed=0.0199x elapsed=0:01:06.38    \nframe=   68 fps=1.0 q=32.0 size=       1KiB time=00:00:01.34 bitrate=   3.4kbits/s speed=0.02x elapsed=0:01:06.94    \nframe=   68 fps=1.0 q=32.0 size=       1KiB time=00:00:01.34 bitrate=   3.4kbits/s speed=0.0199x elapsed=0:01:07.49    \nframe=   69 fps=1.0 q=38.0 size=       1KiB time=00:00:01.36 bitrate=   3.3kbits/s speed=0.02x elapsed=0:01:08.02    \nframe=   70 fps=1.0 q=32.0 size=       1KiB time=00:00:01.38 bitrate=   3.3kbits/s speed=0.0201x elapsed=0:01:08.55    \nframe=   71 fps=1.0 q=37.0 size=       1KiB time=00:00:01.40 bitrate=   3.2kbits/s speed=0.0203x elapsed=0:01:09.11    \nframe=   71 fps=1.0 q=37.0 size=       1KiB time=00:00:01.40 bitrate=   3.2kbits/s speed=0.0201x elapsed=0:01:09.62    \nframe=   72 fps=1.0 q=33.0 size=       1KiB time=00:00:01.42 bitrate=   3.2kbits/s speed=0.0202x elapsed=0:01:10.22    \nframe=   74 fps=1.0 q=34.0 size=       1KiB time=00:00:01.44 bitrate=   3.1kbits/s speed=0.0203x elapsed=0:01:10.82    \nframe=   74 fps=1.0 q=34.0 size=       1KiB time=00:00:01.46 bitrate=   3.1kbits/s speed=0.0204x elapsed=0:01:11.41    \nframe=   75 fps=1.0 q=38.0 size=       1KiB time=00:00:01.48 bitrate=   3.0kbits/s speed=0.0206x elapsed=0:01:11.94    \nframe=   76 fps=1.0 q=33.0 size=       1KiB time=00:00:01.50 bitrate=   3.0kbits/s speed=0.0207x elapsed=0:01:12.47    \nframe=   76 fps=1.0 q=33.0 size=       1KiB time=00:00:01.50 bitrate=   3.0kbits/s speed=0.0205x elapsed=0:01:13.04    \nframe=   78 fps=1.1 q=34.0 size=       1KiB time=00:00:01.54 bitrate=   2.9kbits/s speed=0.0209x elapsed=0:01:13.61    \nframe=   80 fps=1.1 q=35.0 size=       1KiB time=00:00:01.58 bitrate=   2.8kbits/s speed=0.0213x elapsed=0:01:14.15    \nframe=   80 fps=1.1 q=35.0 size=       1KiB time=00:00:01.58 bitrate=   2.8kbits/s speed=0.0212x elapsed=0:01:14.67    \nframe=   82 fps=1.1 q=35.0 size=       1KiB time=00:00:01.62 bitrate=   2.8kbits/s speed=0.0215x elapsed=0:01:15.20    \nframe=   83 fps=1.1 q=38.0 size=       1KiB time=00:00:01.64 bitrate=   2.7kbits/s speed=0.0217x elapsed=0:01:15.73    \nframe=   83 fps=1.1 q=38.0 size=       1KiB time=00:00:01.64 bitrate=   2.7kbits/s speed=0.0215x elapsed=0:01:16.25    \nframe=   84 fps=1.1 q=34.0 size=       1KiB time=00:00:01.66 bitrate=   2.7kbits/s speed=0.0216x elapsed=0:01:16.76    \nframe=   85 fps=1.1 q=39.0 size=       1KiB time=00:00:01.68 bitrate=   2.7kbits/s speed=0.0217x elapsed=0:01:17.29    \nframe=   86 fps=1.1 q=34.0 size=       1KiB time=00:00:01.70 bitrate=   2.6kbits/s speed=0.0218x elapsed=0:01:17.83    \nframe=   86 fps=1.1 q=34.0 size=       1KiB time=00:00:01.70 bitrate=   2.6kbits/s speed=0.0217x elapsed=0:01:18.35    \nframe=   86 fps=1.1 q=34.0 size=       1KiB time=00:00:01.70 bitrate=   2.6kbits/s speed=0.0215x elapsed=0:01:18.92    \nframe=   87 fps=1.1 q=37.0 size=       1KiB time=00:00:01.72 bitrate=   2.6kbits/s speed=0.0216x elapsed=0:01:19.49    \nframe=   88 fps=1.1 q=34.0 size=       1KiB time=00:00:01.74 bitrate=   2.6kbits/s speed=0.0217x elapsed=0:01:20.05    \nframe=   89 fps=1.1 q=35.0 size=       1KiB time=00:00:01.76 bitrate=   2.6kbits/s speed=0.0218x elapsed=0:01:20.60    \nframe=   90 fps=1.1 q=35.0 size=       1KiB time=00:00:01.78 bitrate=   2.5kbits/s speed=0.0219x elapsed=0:01:21.16    \nframe=   91 fps=1.1 q=38.0 size=       1KiB time=00:00:01.80 bitrate=   2.5kbits/s speed=0.022x elapsed=0:01:21.71    \nframe=   92 fps=1.1 q=35.0 size=       1KiB time=00:00:01.82 bitrate=   2.5kbits/s speed=0.0221x elapsed=0:01:22.22    \nframe=   93 fps=1.1 q=36.0 size=       1KiB time=00:00:01.84 bitrate=   2.4kbits/s speed=0.0222x elapsed=0:01:22.80    \nframe=   95 fps=1.1 q=37.0 size=       1KiB time=00:00:01.88 bitrate=   2.4kbits/s speed=0.0226x elapsed=0:01:23.34    \nframe=   95 fps=1.1 q=37.0 size=       1KiB time=00:00:01.88 bitrate=   2.4kbits/s speed=0.0224x elapsed=0:01:23.90    \nframe=   97 fps=1.1 q=18.0 size=       1KiB time=00:00:01.92 bitrate=   2.3kbits/s speed=0.0227x elapsed=0:01:24.48    \nframe=   98 fps=1.2 q=35.0 size=       1KiB time=00:00:01.94 bitrate=   2.3kbits/s speed=0.0228x elapsed=0:01:25.04    \nframe=   98 fps=1.1 q=35.0 size=       1KiB time=00:00:01.94 bitrate=   2.3kbits/s speed=0.0227x elapsed=0:01:25.63    \nframe=   99 fps=1.1 q=38.0 size=       1KiB time=00:00:01.96 bitrate=   2.3kbits/s speed=0.0227x elapsed=0:01:26.29    \nframe=  100 fps=1.2 q=35.0 size=       1KiB time=00:00:01.98 bitrate=   2.3kbits/s speed=0.0228x elapsed=0:01:26.90    \nframe=  101 fps=1.2 q=38.0 size=       1KiB time=00:00:02.00 bitrate=   2.2kbits/s speed=0.0229x elapsed=0:01:27.48    \nframe=  102 fps=1.2 q=34.0 size=       1KiB time=00:00:02.02 bitrate=   2.2kbits/s speed=0.0229x elapsed=0:01:28.10    \nframe=  102 fps=1.1 q=34.0 size=       1KiB time=00:00:02.02 bitrate=   2.2kbits/s speed=0.0228x elapsed=0:01:28.71    \nframe=  103 fps=1.2 q=37.0 size=       1KiB time=00:00:02.04 bitrate=   2.2kbits/s speed=0.0228x elapsed=0:01:29.28    \nframe=  104 fps=1.2 q=34.0 size=       1KiB time=00:00:02.06 bitrate=   2.2kbits/s speed=0.0229x elapsed=0:01:29.83    \nframe=  105 fps=1.2 q=34.0 size=       1KiB time=00:00:02.08 bitrate=   2.2kbits/s speed=0.023x elapsed=0:01:30.38    \nframe=  106 fps=1.2 q=36.0 size=       1KiB time=00:00:02.10 bitrate=   2.1kbits/s speed=0.0231x elapsed=0:01:30.96    \nframe=  107 fps=1.2 q=39.0 size=       1KiB time=00:00:02.12 bitrate=   2.1kbits/s speed=0.0231x elapsed=0:01:31.60    \nframe=  107 fps=1.2 q=39.0 size=       1KiB time=00:00:02.12 bitrate=   2.1kbits/s speed=0.023x elapsed=0:01:32.11    \nframe=  108 fps=1.2 q=34.0 size=       1KiB time=00:00:02.14 bitrate=   2.1kbits/s speed=0.0231x elapsed=0:01:32.63    \nframe=  108 fps=1.2 q=34.0 size=       1KiB time=00:00:02.14 bitrate=   2.1kbits/s speed=0.023x elapsed=0:01:33.15    \nframe=  109 fps=1.2 q=36.0 size=       1KiB time=00:00:02.16 bitrate=   2.1kbits/s speed=0.0231x elapsed=0:01:33.66    \nframe=  111 fps=1.2 q=39.0 size=       1KiB time=00:00:02.20 bitrate=   2.0kbits/s speed=0.0234x elapsed=0:01:34.18    \nframe=  112 fps=1.2 q=36.0 size=       1KiB time=00:00:02.22 bitrate=   2.0kbits/s speed=0.0234x elapsed=0:01:34.70    \nframe=  113 fps=1.2 q=18.0 size=       1KiB time=00:00:02.24 bitrate=   2.0kbits/s speed=0.0235x elapsed=0:01:35.20    \nframe=  114 fps=1.2 q=36.0 size=       1KiB time=00:00:02.26 bitrate=   2.0kbits/s speed=0.0236x elapsed=0:01:35.72    \nframe=  115 fps=1.2 q=39.0 size=       1KiB time=00:00:02.28 bitrate=   2.0kbits/s speed=0.0237x elapsed=0:01:36.23    \nframe=  115 fps=1.2 q=39.0 size=       1KiB time=00:00:02.28 bitrate=   2.0kbits/s speed=0.0236x elapsed=0:01:36.76    \nframe=  116 fps=1.2 q=36.0 size=       1KiB time=00:00:02.30 bitrate=   2.0kbits/s speed=0.0236x elapsed=0:01:37.27    \nframe=  118 fps=1.2 q=35.0 size=       1KiB time=00:00:02.34 bitrate=   1.9kbits/s speed=0.0239x elapsed=0:01:37.79    \nframe=  118 fps=1.2 q=35.0 size=       1KiB time=00:00:02.34 bitrate=   1.9kbits/s speed=0.0238x elapsed=0:01:38.29    \nframe=  119 fps=1.2 q=37.0 size=       1KiB time=00:00:02.36 bitrate=   1.9kbits/s speed=0.0239x elapsed=0:01:38.82    \nframe=  119 fps=1.2 q=37.0 size=       1KiB time=00:00:02.36 bitrate=   1.9kbits/s speed=0.0237x elapsed=0:01:39.46    \nframe=  120 fps=1.2 q=35.0 size=       1KiB time=00:00:02.38 bitrate=   1.9kbits/s speed=0.0238x elapsed=0:01:39.97    \nframe=  122 fps=1.2 q=35.0 size=       1KiB time=00:00:02.42 bitrate=   1.9kbits/s speed=0.0241x elapsed=0:01:40.48    \nframe=  123 fps=1.2 q=37.0 size=       1KiB time=00:00:02.44 bitrate=   1.8kbits/s speed=0.0242x elapsed=0:01:41.00    \nframe=  124 fps=1.2 q=35.0 size=       1KiB time=00:00:02.46 bitrate=   1.8kbits/s speed=0.0242x elapsed=0:01:41.52    \nframe=  124 fps=1.2 q=35.0 size=       1KiB time=00:00:02.46 bitrate=   1.8kbits/s speed=0.0241x elapsed=0:01:42.04    \nframe=  126 fps=1.2 q=35.0 size=       1KiB time=00:00:02.50 bitrate=   1.8kbits/s speed=0.0244x elapsed=0:01:42.55    \nframe=  126 fps=1.2 q=35.0 size=       1KiB time=00:00:02.50 bitrate=   1.8kbits/s speed=0.0243x elapsed=0:01:43.06    \nframe=  129 fps=1.2 q=21.0 size=       1KiB time=00:00:02.56 bitrate=   1.8kbits/s speed=0.0247x elapsed=0:01:43.58    \nframe=  129 fps=1.2 q=21.0 size=       1KiB time=00:00:02.56 bitrate=   1.8kbits/s speed=0.0246x elapsed=0:01:44.10    \nframe=  130 fps=1.2 q=35.0 size=       1KiB time=00:00:02.58 bitrate=   1.7kbits/s speed=0.0247x elapsed=0:01:44.61    \nframe=  131 fps=1.2 q=37.0 size=       1KiB time=00:00:02.60 bitrate=   1.7kbits/s speed=0.0247x elapsed=0:01:45.13    \nframe=  131 fps=1.2 q=37.0 size=       1KiB time=00:00:02.60 bitrate=   1.7kbits/s speed=0.0246x elapsed=0:01:45.64    \nframe=  132 fps=1.2 q=29.0 size=       1KiB time=00:00:02.62 bitrate=   1.7kbits/s speed=0.0247x elapsed=0:01:46.16    \nframe=  133 fps=1.2 q=38.0 size=       1KiB time=00:00:02.64 bitrate=   1.7kbits/s speed=0.0247x elapsed=0:01:46.67    \nframe=  133 fps=1.2 q=38.0 size=       1KiB time=00:00:02.64 bitrate=   1.7kbits/s speed=0.0246x elapsed=0:01:47.20    \nframe=  134 fps=1.2 q=35.0 size=       1KiB time=00:00:02.66 bitrate=   1.7kbits/s speed=0.0247x elapsed=0:01:47.71    \nframe=  135 fps=1.2 q=37.0 size=       1KiB time=00:00:02.68 bitrate=   1.7kbits/s speed=0.0248x elapsed=0:01:48.21    \nframe=  135 fps=1.2 q=37.0 size=       1KiB time=00:00:02.68 bitrate=   1.7kbits/s speed=0.0246x elapsed=0:01:48.74    \nframe=  136 fps=1.2 q=35.0 size=       1KiB time=00:00:02.70 bitrate=   1.7kbits/s speed=0.0247x elapsed=0:01:49.25    \nframe=  137 fps=1.2 q=32.0 size=       1KiB time=00:00:02.72 bitrate=   1.7kbits/s speed=0.0248x elapsed=0:01:49.76    \nframe=  139 fps=1.3 q=38.0 size=       1KiB time=00:00:02.76 bitrate=   1.6kbits/s speed=0.025x elapsed=0:01:50.29    \nframe=  140 fps=1.3 q=36.0 size=       1KiB time=00:00:02.78 bitrate=   1.6kbits/s speed=0.0251x elapsed=0:01:50.81    \nframe=  141 fps=1.3 q=36.0 size=       1KiB time=00:00:02.80 bitrate=   1.6kbits/s speed=0.0252x elapsed=0:01:51.31    \nframe=  143 fps=1.3 q=38.0 size=       1KiB time=00:00:02.84 bitrate=   1.6kbits/s speed=0.0254x elapsed=0:01:51.84    \nframe=  144 fps=1.3 q=36.0 size=       1KiB time=00:00:02.86 bitrate=   1.6kbits/s speed=0.0255x elapsed=0:01:52.34    \nframe=  145 fps=1.3 q=21.0 size=       1KiB time=00:00:02.88 bitrate=   1.6kbits/s speed=0.0255x elapsed=0:01:52.86    \nframe=  147 fps=1.3 q=38.0 size=       1KiB time=00:00:02.92 bitrate=   1.5kbits/s speed=0.0258x elapsed=0:01:53.39    \nframe=  147 fps=1.3 q=38.0 size=       1KiB time=00:00:02.92 bitrate=   1.5kbits/s speed=0.0256x elapsed=0:01:53.91    \nframe=  148 fps=1.3 q=36.0 size=       1KiB time=00:00:02.94 bitrate=   1.5kbits/s speed=0.0257x elapsed=0:01:54.42    \nframe=  149 fps=1.3 q=38.0 size=       1KiB time=00:00:02.96 bitrate=   1.5kbits/s speed=0.0258x elapsed=0:01:54.94    \nframe=  150 fps=1.3 q=36.0 size=       1KiB time=00:00:02.98 bitrate=   1.5kbits/s speed=0.0258x elapsed=0:01:55.46    \nframe=  150 fps=1.3 q=36.0 size=       1KiB time=00:00:02.98 bitrate=   1.5kbits/s speed=0.0257x elapsed=0:01:55.97    \nframe=  151 fps=1.3 q=38.0 size=       1KiB time=00:00:03.00 bitrate=   1.5kbits/s speed=0.0258x elapsed=0:01:56.48    \nframe=  151 fps=1.3 q=38.0 size=       1KiB time=00:00:03.00 bitrate=   1.5kbits/s speed=0.0256x elapsed=0:01:57.00    \nframe=  153 fps=1.3 q=32.0 size=       1KiB time=00:00:03.04 bitrate=   1.5kbits/s speed=0.0259x elapsed=0:01:57.52    \nframe=  154 fps=1.3 q=36.0 size=       1KiB time=00:00:03.06 bitrate=   1.5kbits/s speed=0.0259x elapsed=0:01:58.03    \nframe=  155 fps=1.3 q=38.0 size=       1KiB time=00:00:03.08 bitrate=   1.5kbits/s speed=0.026x elapsed=0:01:58.62    \nframe=  157 fps=1.3 q=36.0 size=       1KiB time=00:00:03.12 bitrate=   1.4kbits/s speed=0.0262x elapsed=0:01:59.22    \nframe=  160 fps=1.3 q=36.0 size=       1KiB time=00:00:03.18 bitrate=   1.4kbits/s speed=0.0266x elapsed=0:01:59.73    \nframe=  161 fps=1.3 q=21.0 size=       1KiB time=00:00:03.20 bitrate=   1.4kbits/s speed=0.0266x elapsed=0:02:00.28    \nframe=  162 fps=1.3 q=37.0 size=       1KiB time=00:00:03.22 bitrate=   1.4kbits/s speed=0.0266x elapsed=0:02:00.87    \nframe=  163 fps=1.3 q=39.0 size=       1KiB time=00:00:03.24 bitrate=   1.4kbits/s speed=0.0267x elapsed=0:02:01.42    \nframe=  164 fps=1.3 q=37.0 size=       1KiB time=00:00:03.26 bitrate=   1.4kbits/s speed=0.0267x elapsed=0:02:01.99    \nframe=  165 fps=1.3 q=38.0 size=       1KiB time=00:00:03.26 bitrate=   1.4kbits/s speed=0.0266x elapsed=0:02:02.63    \nframe=  166 fps=1.3 q=37.0 size=       1KiB time=00:00:03.30 bitrate=   1.4kbits/s speed=0.0268x elapsed=0:02:03.19    \nframe=  166 fps=1.3 q=37.0 size=       1KiB time=00:00:03.30 bitrate=   1.4kbits/s speed=0.0267x elapsed=0:02:03.72    \nframe=  167 fps=1.3 q=38.0 size=       1KiB time=00:00:03.32 bitrate=   1.4kbits/s speed=0.0267x elapsed=0:02:04.32    \nframe=  168 fps=1.3 q=37.0 size=       1KiB time=00:00:03.34 bitrate=   1.3kbits/s speed=0.0267x elapsed=0:02:04.90    \nframe=  170 fps=1.4 q=37.0 size=       1KiB time=00:00:03.38 bitrate=   1.3kbits/s speed=0.0269x elapsed=0:02:05.49    \nframe=  171 fps=1.4 q=38.0 size=       1KiB time=00:00:03.40 bitrate=   1.3kbits/s speed=0.027x elapsed=0:02:06.08    \nframe=  172 fps=1.4 q=33.0 size=       1KiB time=00:00:03.42 bitrate=   1.3kbits/s speed=0.027x elapsed=0:02:06.62    \nframe=  173 fps=1.4 q=37.0 size=       1KiB time=00:00:03.44 bitrate=   1.3kbits/s speed=0.0271x elapsed=0:02:07.13    \nframe=  174 fps=1.4 q=36.0 size=       1KiB time=00:00:03.46 bitrate=   1.3kbits/s speed=0.0271x elapsed=0:02:07.64    \nframe=  175 fps=1.4 q=37.0 size=       1KiB time=00:00:03.48 bitrate=   1.3kbits/s speed=0.0272x elapsed=0:02:08.16    \nframe=  176 fps=1.4 q=36.0 size=       1KiB time=00:00:03.50 bitrate=   1.3kbits/s speed=0.0272x elapsed=0:02:08.67    \nframe=  178 fps=1.4 q=35.0 size=       1KiB time=00:00:03.54 bitrate=   1.3kbits/s speed=0.0274x elapsed=0:02:09.18    \nframe=  179 fps=1.4 q=36.0 size=       1KiB time=00:00:03.56 bitrate=   1.3kbits/s speed=0.0274x elapsed=0:02:09.71    \nframe=  181 fps=1.4 q=38.0 size=       1KiB time=00:00:03.60 bitrate=   1.2kbits/s speed=0.0276x elapsed=0:02:10.22    \nframe=  182 fps=1.4 q=35.0 size=       1KiB time=00:00:03.62 bitrate=   1.2kbits/s speed=0.0277x elapsed=0:02:10.73    \nframe=  182 fps=1.4 q=35.0 size=       1KiB time=00:00:03.62 bitrate=   1.2kbits/s speed=0.0276x elapsed=0:02:11.25    \nframe=  182 fps=1.4 q=35.0 size=       1KiB time=00:00:03.62 bitrate=   1.2kbits/s speed=0.0275x elapsed=0:02:11.77    \nframe=  183 fps=1.4 q=36.0 size=       1KiB time=00:00:03.64 bitrate=   1.2kbits/s speed=0.0275x elapsed=0:02:12.29    \nframe=  183 fps=1.4 q=36.0 size=       1KiB time=00:00:03.64 bitrate=   1.2kbits/s speed=0.0274x elapsed=0:02:12.80    \nframe=  184 fps=1.4 q=35.0 size=       1KiB time=00:00:03.66 bitrate=   1.2kbits/s speed=0.0275x elapsed=0:02:13.32    \nframe=  186 fps=1.4 q=36.0 size=       1KiB time=00:00:03.70 bitrate=   1.2kbits/s speed=0.0276x elapsed=0:02:13.84    \nframe=  187 fps=1.4 q=37.0 size=       1KiB time=00:00:03.72 bitrate=   1.2kbits/s speed=0.0277x elapsed=0:02:14.36    \nframe=  187 fps=1.4 q=37.0 size=       1KiB time=00:00:03.72 bitrate=   1.2kbits/s speed=0.0276x elapsed=0:02:14.88    \nframe=  188 fps=1.4 q=36.0 size=       1KiB time=00:00:03.74 bitrate=   1.2kbits/s speed=0.0276x elapsed=0:02:15.40    \nframe=  190 fps=1.4 q=36.0 size=       1KiB time=00:00:03.78 bitrate=   1.2kbits/s speed=0.0278x elapsed=0:02:15.90    \nframe=  192 fps=1.4 q=36.0 size=       1KiB time=00:00:03.82 bitrate=   1.2kbits/s speed=0.028x elapsed=0:02:16.42    \nframe=  193 fps=1.4 q=22.0 size=       1KiB time=00:00:03.84 bitrate=   1.2kbits/s speed=0.028x elapsed=0:02:16.94    \nframe=  194 fps=1.4 q=36.0 size=       1KiB time=00:00:03.86 bitrate=   1.2kbits/s speed=0.0281x elapsed=0:02:17.45    \nframe=  196 fps=1.4 q=36.0 size=       1KiB time=00:00:03.90 bitrate=   1.2kbits/s speed=0.0283x elapsed=0:02:17.98    \nframe=  198 fps=1.4 q=36.0 size=       1KiB time=00:00:03.94 bitrate=   1.1kbits/s speed=0.0284x elapsed=0:02:18.49    \nframe=  198 fps=1.4 q=36.0 size=       1KiB time=00:00:03.94 bitrate=   1.1kbits/s speed=0.0283x elapsed=0:02:19.00    \nframe=  199 fps=1.4 q=37.0 size=       1KiB time=00:00:03.96 bitrate=   1.1kbits/s speed=0.0284x elapsed=0:02:19.52    \nframe=  199 fps=1.4 q=37.0 size=       1KiB time=00:00:03.96 bitrate=   1.1kbits/s speed=0.0283x elapsed=0:02:20.03    \nframe=  200 fps=1.4 q=36.0 size=       1KiB time=00:00:03.98 bitrate=   1.1kbits/s speed=0.0283x elapsed=0:02:20.55    \nframe=  202 fps=1.4 q=36.0 size=       1KiB time=00:00:04.02 bitrate=   1.1kbits/s speed=0.0285x elapsed=0:02:21.07    \nframe=  203 fps=1.4 q=37.0 size=       1KiB time=00:00:04.04 bitrate=   1.1kbits/s speed=0.0285x elapsed=0:02:21.60    \nframe=  204 fps=1.4 q=33.0 size=       1KiB time=00:00:04.06 bitrate=   1.1kbits/s speed=0.0286x elapsed=0:02:22.11    \nframe=  205 fps=1.4 q=37.0 size=       1KiB time=00:00:04.08 bitrate=   1.1kbits/s speed=0.0286x elapsed=0:02:22.62    \nframe=  207 fps=1.4 q=37.0 size=       1KiB time=00:00:04.12 bitrate=   1.1kbits/s speed=0.0288x elapsed=0:02:23.14    \nframe=  208 fps=1.4 q=36.0 size=       1KiB time=00:00:04.14 bitrate=   1.1kbits/s speed=0.0288x elapsed=0:02:23.66    \nframe=  211 fps=1.5 q=37.0 size=       1KiB time=00:00:04.20 bitrate=   1.1kbits/s speed=0.0291x elapsed=0:02:24.17    \nframe=  211 fps=1.5 q=37.0 size=       1KiB time=00:00:04.20 bitrate=   1.1kbits/s speed=0.029x elapsed=0:02:24.68    \nframe=  213 fps=1.5 q=38.0 size=       1KiB time=00:00:04.24 bitrate=   1.1kbits/s speed=0.0292x elapsed=0:02:25.20    \nframe=  214 fps=1.5 q=36.0 size=       1KiB time=00:00:04.26 bitrate=   1.1kbits/s speed=0.0292x elapsed=0:02:25.73    \nframe=  215 fps=1.5 q=37.0 size=       1KiB time=00:00:04.28 bitrate=   1.1kbits/s speed=0.0293x elapsed=0:02:26.30    \nframe=  215 fps=1.5 q=37.0 size=       1KiB time=00:00:04.28 bitrate=   1.1kbits/s speed=0.0292x elapsed=0:02:26.82    \nframe=  217 fps=1.5 q=31.0 size=       1KiB time=00:00:04.32 bitrate=   1.0kbits/s speed=0.0293x elapsed=0:02:27.40    \nframe=  219 fps=1.5 q=38.0 size=       1KiB time=00:00:04.36 bitrate=   1.0kbits/s speed=0.0295x elapsed=0:02:27.97    \nframe=  219 fps=1.5 q=38.0 size=       1KiB time=00:00:04.36 bitrate=   1.0kbits/s speed=0.0294x elapsed=0:02:28.54    \nframe=  220 fps=1.5 q=34.0 size=       1KiB time=00:00:04.38 bitrate=   1.0kbits/s speed=0.0294x elapsed=0:02:29.06    \nframe=  222 fps=1.5 q=37.0 size=       1KiB time=00:00:04.42 bitrate=   1.0kbits/s speed=0.0295x elapsed=0:02:29.67    \nframe=  225 fps=1.5 q=22.0 size=       1KiB time=00:00:04.48 bitrate=   1.0kbits/s speed=0.0298x elapsed=0:02:30.22    \nframe=  227 fps=1.5 q=37.0 size=       1KiB time=00:00:04.52 bitrate=   1.0kbits/s speed=0.03x elapsed=0:02:30.75    \nframe=  229 fps=1.5 q=39.0 size=       1KiB time=00:00:04.54 bitrate=   1.0kbits/s speed=0.03x elapsed=0:02:31.27    \nframe=  230 fps=1.5 q=36.0 size=       1KiB time=00:00:04.58 bitrate=   1.0kbits/s speed=0.0302x elapsed=0:02:31.85    \nframe=  231 fps=1.5 q=36.0 size=       1KiB time=00:00:04.60 bitrate=   1.0kbits/s speed=0.0302x elapsed=0:02:32.42    \nframe=  231 fps=1.5 q=36.0 size=       1KiB time=00:00:04.60 bitrate=   1.0kbits/s speed=0.0301x elapsed=0:02:32.98    \nframe=  232 fps=1.5 q=36.0 size=       1KiB time=00:00:04.62 bitrate=   1.0kbits/s speed=0.0301x elapsed=0:02:33.66    \nframe=  234 fps=1.5 q=36.0 size=       1KiB time=00:00:04.66 bitrate=   1.0kbits/s speed=0.0302x elapsed=0:02:34.28    \nframe=  234 fps=1.5 q=36.0 size=       1KiB time=00:00:04.66 bitrate=   1.0kbits/s speed=0.0301x elapsed=0:02:34.80    \nframe=  235 fps=1.5 q=36.0 size=       1KiB time=00:00:04.68 bitrate=   1.0kbits/s speed=0.0301x elapsed=0:02:35.31    \nframe=  236 fps=1.5 q=35.0 size=       1KiB time=00:00:04.70 bitrate=   1.0kbits/s speed=0.0302x elapsed=0:02:35.84    \nframe=  236 fps=1.5 q=35.0 size=       1KiB time=00:00:04.70 bitrate=   1.0kbits/s speed=0.0301x elapsed=0:02:36.35    \nframe=  239 fps=1.5 q=37.0 size=       1KiB time=00:00:04.76 bitrate=   0.9kbits/s speed=0.0303x elapsed=0:02:36.86    \nframe=  239 fps=1.5 q=37.0 size=       1KiB time=00:00:04.76 bitrate=   0.9kbits/s speed=0.0302x elapsed=0:02:37.37    \nframe=  241 fps=1.5 q=23.0 size=       1KiB time=00:00:04.80 bitrate=   0.9kbits/s speed=0.0304x elapsed=0:02:37.89    \nframe=  242 fps=1.5 q=37.0 size=       1KiB time=00:00:04.82 bitrate=   0.9kbits/s speed=0.0304x elapsed=0:02:38.40    \nframe=  243 fps=1.5 q=38.0 size=       1KiB time=00:00:04.84 bitrate=   0.9kbits/s speed=0.0305x elapsed=0:02:38.92    \nframe=  244 fps=1.5 q=37.0 size=       1KiB time=00:00:04.86 bitrate=   0.9kbits/s speed=0.0305x elapsed=0:02:39.44    \nframe=  246 fps=1.5 q=37.0 size=       1KiB time=00:00:04.90 bitrate=   0.9kbits/s speed=0.0306x elapsed=0:02:39.96    \nframe=  246 fps=1.5 q=37.0 size=       1KiB time=00:00:04.90 bitrate=   0.9kbits/s speed=0.0305x elapsed=0:02:40.47    \nframe=  247 fps=1.5 q=37.0 size=       1KiB time=00:00:04.92 bitrate=   0.9kbits/s speed=0.0306x elapsed=0:02:40.99    \nframe=  248 fps=1.5 q=37.0 size=       1KiB time=00:00:04.94 bitrate=   0.9kbits/s speed=0.0306x elapsed=0:02:41.51    \nframe=  248 fps=1.5 q=37.0 size=       1KiB time=00:00:04.94 bitrate=   0.9kbits/s speed=0.0305x elapsed=0:02:42.03    \nframe=  250 fps=1.5 q=37.0 size=       1KiB time=00:00:04.98 bitrate=   0.9kbits/s speed=0.0306x elapsed=0:02:42.53    \nframe=  251 fps=1.5 q=38.0 size=       1KiB time=00:00:05.00 bitrate=   0.9kbits/s speed=0.0307x elapsed=0:02:43.05    \nframe=  251 fps=1.5 q=38.0 size=       1KiB time=00:00:05.00 bitrate=   0.9kbits/s speed=0.0306x elapsed=0:02:43.56    \nframe=  252 fps=1.5 q=36.0 size=       1KiB time=00:00:05.02 bitrate=   0.9kbits/s speed=0.0306x elapsed=0:02:44.08    \nframe=  254 fps=1.5 q=37.0 size=    2560KiB time=00:00:05.06 bitrate=4144.6kbits/s speed=0.0307x elapsed=0:02:44.60    \nframe=  255 fps=1.5 q=38.0 size=    2560KiB time=00:00:05.08 bitrate=4128.3kbits/s speed=0.0308x elapsed=0:02:45.11    \nframe=  256 fps=1.5 q=37.0 size=    2560KiB time=00:00:05.10 bitrate=4112.1kbits/s speed=0.0308x elapsed=0:02:45.63    \nframe=  258 fps=1.6 q=37.0 size=    2560KiB time=00:00:05.14 bitrate=4080.1kbits/s speed=0.0309x elapsed=0:02:46.15    \nframe=  258 fps=1.5 q=37.0 size=    2560KiB time=00:00:05.14 bitrate=4080.1kbits/s speed=0.0308x elapsed=0:02:46.65    \nframe=  259 fps=1.5 q=38.0 size=    2560KiB time=00:00:05.16 bitrate=4064.2kbits/s speed=0.0309x elapsed=0:02:47.18    \nframe=  260 fps=1.6 q=31.0 size=    2560KiB time=00:00:05.18 bitrate=4048.6kbits/s speed=0.0309x elapsed=0:02:47.69    \nframe=  261 fps=1.6 q=39.0 size=    2560KiB time=00:00:05.20 bitrate=4033.0kbits/s speed=0.0309x elapsed=0:02:48.21    \nframe=  262 fps=1.6 q=38.0 size=    2560KiB time=00:00:05.22 bitrate=4017.5kbits/s speed=0.0309x elapsed=0:02:48.72    \nframe=  263 fps=1.6 q=39.0 size=    2560KiB time=00:00:05.24 bitrate=4002.2kbits/s speed=0.031x elapsed=0:02:49.23    \nframe=  263 fps=1.5 q=39.0 size=    2560KiB time=00:00:05.24 bitrate=4002.2kbits/s speed=0.0309x elapsed=0:02:49.76    \nframe=  264 fps=1.6 q=38.0 size=    2560KiB time=00:00:05.26 bitrate=3987.0kbits/s speed=0.0309x elapsed=0:02:50.27    \nframe=  266 fps=1.6 q=39.0 size=    2560KiB time=00:00:05.30 bitrate=3956.9kbits/s speed=0.031x elapsed=0:02:50.78    \nframe=  267 fps=1.6 q=39.0 size=    2560KiB time=00:00:05.32 bitrate=3942.0kbits/s speed=0.0311x elapsed=0:02:51.30    \nframe=  269 fps=1.6 q=38.0 size=    2560KiB time=00:00:05.36 bitrate=3912.6kbits/s speed=0.0312x elapsed=0:02:51.82    \nframe=  269 fps=1.6 q=38.0 size=    2560KiB time=00:00:05.36 bitrate=3912.6kbits/s speed=0.0311x elapsed=0:02:52.33    \nframe=  271 fps=1.6 q=40.0 size=    2560KiB time=00:00:05.40 bitrate=3883.6kbits/s speed=0.0312x elapsed=0:02:52.85    \nframe=  274 fps=1.6 q=39.0 size=    2560KiB time=00:00:05.46 bitrate=3840.9kbits/s speed=0.0315x elapsed=0:02:53.37    \nframe=  276 fps=1.6 q=39.0 size=    2560KiB time=00:00:05.50 bitrate=3813.0kbits/s speed=0.0316x elapsed=0:02:53.87    \nframe=  278 fps=1.6 q=39.0 size=    2560KiB time=00:00:05.54 bitrate=3785.5kbits/s speed=0.0318x elapsed=0:02:54.39    \nframe=  278 fps=1.6 q=39.0 size=    2560KiB time=00:00:05.54 bitrate=3785.5kbits/s speed=0.0317x elapsed=0:02:54.91    \nframe=  279 fps=1.6 q=39.0 size=    2560KiB time=00:00:05.56 bitrate=3771.9kbits/s speed=0.0317x elapsed=0:02:55.43    \nframe=  280 fps=1.6 q=39.0 size=    2560KiB time=00:00:05.58 bitrate=3758.3kbits/s speed=0.0317x elapsed=0:02:55.93    \nframe=  281 fps=1.6 q=37.0 size=    2560KiB time=00:00:05.60 bitrate=3744.9kbits/s speed=0.0317x elapsed=0:02:56.45    \nframe=  283 fps=1.6 q=38.0 size=    2560KiB time=00:00:05.64 bitrate=3718.4kbits/s speed=0.0319x elapsed=0:02:56.99    \nframe=  283 fps=1.6 q=38.0 size=    2560KiB time=00:00:05.64 bitrate=3718.4kbits/s speed=0.0318x elapsed=0:02:57.56    \nframe=  284 fps=1.6 q=38.0 size=    2560KiB time=00:00:05.66 bitrate=3705.2kbits/s speed=0.0318x elapsed=0:02:58.17    \nframe=  284 fps=1.6 q=38.0 size=    2560KiB time=00:00:05.66 bitrate=3705.2kbits/s speed=0.0317x elapsed=0:02:58.69    \nframe=  287 fps=1.6 q=38.0 size=    2560KiB time=00:00:05.72 bitrate=3666.3kbits/s speed=0.0319x elapsed=0:02:59.21    \nframe=  288 fps=1.6 q=37.0 size=    2560KiB time=00:00:05.74 bitrate=3653.6kbits/s speed=0.0319x elapsed=0:02:59.75    \nframe=  288 fps=1.6 q=37.0 size=    2560KiB time=00:00:05.74 bitrate=3653.6kbits/s speed=0.0318x elapsed=0:03:00.27    \nframe=  288 fps=1.6 q=37.0 size=    2560KiB time=00:00:05.74 bitrate=3653.6kbits/s speed=0.0317x elapsed=0:03:00.79    \nframe=  289 fps=1.6 q=24.0 size=    2560KiB time=00:00:05.76 bitrate=3640.9kbits/s speed=0.0318x elapsed=0:03:01.29    \nframe=  289 fps=1.6 q=24.0 size=    2560KiB time=00:00:05.76 bitrate=3640.9kbits/s speed=0.0317x elapsed=0:03:01.82    \nframe=  290 fps=1.6 q=39.0 size=    2560KiB time=00:00:05.78 bitrate=3628.3kbits/s speed=0.0317x elapsed=0:03:02.33    \nframe=  291 fps=1.6 q=39.0 size=    2560KiB time=00:00:05.80 bitrate=3615.8kbits/s speed=0.0317x elapsed=0:03:02.84    \nframe=  291 fps=1.6 q=39.0 size=    2560KiB time=00:00:05.80 bitrate=3615.8kbits/s speed=0.0316x elapsed=0:03:03.36    \nframe=  292 fps=1.6 q=39.0 size=    2560KiB time=00:00:05.82 bitrate=3603.4kbits/s speed=0.0317x elapsed=0:03:03.88    \nframe=  293 fps=1.6 q=39.0 size=    2560KiB time=00:00:05.84 bitrate=3591.0kbits/s speed=0.0317x elapsed=0:03:04.39    \nframe=  294 fps=1.6 q=39.0 size=    2560KiB time=00:00:05.84 bitrate=3591.0kbits/s speed=0.0316x elapsed=0:03:04.95    \nframe=  294 fps=1.6 q=39.0 size=    2560KiB time=00:00:05.86 bitrate=3578.8kbits/s speed=0.0316x elapsed=0:03:05.52    \nframe=  296 fps=1.6 q=39.0 size=    2560KiB time=00:00:05.90 bitrate=3554.5kbits/s speed=0.0317x elapsed=0:03:06.10    \nframe=  297 fps=1.6 q=36.0 size=    2560KiB time=00:00:05.90 bitrate=3554.5kbits/s speed=0.0316x elapsed=0:03:06.69    \nframe=  297 fps=1.6 q=36.0 size=    2560KiB time=00:00:05.92 bitrate=3542.5kbits/s speed=0.0316x elapsed=0:03:07.25    \nframe=  298 fps=1.6 q=39.0 size=    2560KiB time=00:00:05.94 bitrate=3530.6kbits/s speed=0.0316x elapsed=0:03:07.80    \nframe=  300 fps=1.6 q=37.0 size=    2560KiB time=00:00:05.98 bitrate=3506.9kbits/s speed=0.0317x elapsed=0:03:08.36    \nframe=  300 fps=1.6 q=37.0 size=    2560KiB time=00:00:05.98 bitrate=3506.9kbits/s speed=0.0317x elapsed=0:03:08.93    \nframe=  301 fps=1.6 q=39.0 size=    2560KiB time=00:00:06.00 bitrate=3495.3kbits/s speed=0.0317x elapsed=0:03:09.49    \nframe=  302 fps=1.6 q=38.0 size=    2560KiB time=00:00:06.02 bitrate=3483.6kbits/s speed=0.0317x elapsed=0:03:10.07    \nframe=  303 fps=1.6 q=36.0 size=    2560KiB time=00:00:06.04 bitrate=3472.1kbits/s speed=0.0317x elapsed=0:03:10.63    \nframe=  304 fps=1.6 q=38.0 size=    2560KiB time=00:00:06.06 bitrate=3460.6kbits/s speed=0.0317x elapsed=0:03:11.21    \nframe=  305 fps=1.6 q=24.0 size=    2560KiB time=00:00:06.08 bitrate=3449.3kbits/s speed=0.0317x elapsed=0:03:11.80    \nframe=  305 fps=1.6 q=24.0 size=    2560KiB time=00:00:06.08 bitrate=3449.3kbits/s speed=0.0316x elapsed=0:03:12.37    \nframe=  306 fps=1.6 q=39.0 size=    2560KiB time=00:00:06.10 bitrate=3438.0kbits/s speed=0.0316x elapsed=0:03:12.95    \nframe=  306 fps=1.6 q=39.0 size=    2560KiB time=00:00:06.10 bitrate=3438.0kbits/s speed=0.0315x elapsed=0:03:13.55    \nframe=  308 fps=1.6 q=39.0 size=    2560KiB time=00:00:06.14 bitrate=3415.6kbits/s speed=0.0316x elapsed=0:03:14.14    \nframe=  309 fps=1.6 q=36.0 size=    2560KiB time=00:00:06.14 bitrate=3415.6kbits/s speed=0.0315x elapsed=0:03:14.71    \nframe=  309 fps=1.6 q=36.0 size=    2560KiB time=00:00:06.16 bitrate=3404.5kbits/s speed=0.0315x elapsed=0:03:15.29    \nframe=  309 fps=1.6 q=36.0 size=    2560KiB time=00:00:06.16 bitrate=3404.5kbits/s speed=0.0314x elapsed=0:03:15.90    \nframe=  310 fps=1.6 q=39.0 size=    2560KiB time=00:00:06.18 bitrate=3393.4kbits/s speed=0.0315x elapsed=0:03:16.47    \nframe=  311 fps=1.6 q=39.0 size=    2560KiB time=00:00:06.20 bitrate=3382.5kbits/s speed=0.0315x elapsed=0:03:17.03    \nframe=  312 fps=1.6 q=33.0 size=    2560KiB time=00:00:06.22 bitrate=3371.6kbits/s speed=0.0315x elapsed=0:03:17.59    \nframe=  313 fps=1.6 q=34.0 size=    2560KiB time=00:00:06.24 bitrate=3360.8kbits/s speed=0.0315x elapsed=0:03:18.16    \nframe=  313 fps=1.6 q=34.0 size=    2560KiB time=00:00:06.24 bitrate=3360.8kbits/s speed=0.0314x elapsed=0:03:18.72    \nframe=  313 fps=1.6 q=34.0 size=    2560KiB time=00:00:06.24 bitrate=3360.8kbits/s speed=0.0313x elapsed=0:03:19.31    \nframe=  313 fps=1.6 q=34.0 size=    2560KiB time=00:00:06.24 bitrate=3360.8kbits/s speed=0.0312x elapsed=0:03:19.88    \nframe=  315 fps=1.6 q=39.0 size=    2560KiB time=00:00:06.26 bitrate=3350.1kbits/s speed=0.0312x elapsed=0:03:20.43    \nframe=  316 fps=1.6 q=39.0 size=    2560KiB time=00:00:06.30 bitrate=3328.8kbits/s speed=0.0313x elapsed=0:03:20.99    \nframe=  317 fps=1.6 q=38.0 size=    2560KiB time=00:00:06.32 bitrate=3318.3kbits/s speed=0.0314x elapsed=0:03:21.58    \nframe=  317 fps=1.6 q=38.0 size=    2560KiB time=00:00:06.32 bitrate=3318.3kbits/s speed=0.0313x elapsed=0:03:22.16    \nframe=  319 fps=1.6 q=39.0 size=    2560KiB time=00:00:06.34 bitrate=3307.8kbits/s speed=0.0313x elapsed=0:03:22.75    \nframe=  319 fps=1.6 q=39.0 size=    2560KiB time=00:00:06.36 bitrate=3297.4kbits/s speed=0.0313x elapsed=0:03:23.35    \nframe=  320 fps=1.6 q=39.0 size=    2560KiB time=00:00:06.38 bitrate=3287.1kbits/s speed=0.0313x elapsed=0:03:23.93    \nframe=  321 fps=1.6 q=31.0 size=    2560KiB time=00:00:06.40 bitrate=3276.8kbits/s speed=0.0313x elapsed=0:03:24.50    \nframe=  321 fps=1.6 q=31.0 size=    2560KiB time=00:00:06.40 bitrate=3276.8kbits/s speed=0.0312x elapsed=0:03:25.08    \nframe=  322 fps=1.6 q=12.0 size=    2560KiB time=00:00:06.42 bitrate=3266.6kbits/s speed=0.0312x elapsed=0:03:25.65    \nframe=  324 fps=1.6 q=41.0 size=    3072KiB time=00:00:06.46 bitrate=3895.6kbits/s speed=0.0313x elapsed=0:03:26.22    \nframe=  325 fps=1.6 q=41.0 size=    3072KiB time=00:00:06.48 bitrate=3883.6kbits/s speed=0.0313x elapsed=0:03:26.81    \nframe=  325 fps=1.6 q=41.0 size=    3072KiB time=00:00:06.48 bitrate=3883.6kbits/s speed=0.0312x elapsed=0:03:27.41    \nframe=  326 fps=1.6 q=39.0 size=    3072KiB time=00:00:06.50 bitrate=3871.7kbits/s speed=0.0313x elapsed=0:03:27.98    \nframe=  327 fps=1.6 q=39.0 size=    3072KiB time=00:00:06.52 bitrate=3859.8kbits/s speed=0.0313x elapsed=0:03:28.55    \nframe=  328 fps=1.6 q=39.0 size=    3072KiB time=00:00:06.54 bitrate=3848.0kbits/s speed=0.0313x elapsed=0:03:29.12    \nframe=  328 fps=1.6 q=39.0 size=    3072KiB time=00:00:06.54 bitrate=3848.0kbits/s speed=0.0312x elapsed=0:03:29.74    \nframe=  329 fps=1.6 q=39.0 size=    3072KiB time=00:00:06.56 bitrate=3836.3kbits/s speed=0.0312x elapsed=0:03:30.34    \nframe=  329 fps=1.6 q=39.0 size=    3072KiB time=00:00:06.56 bitrate=3836.3kbits/s speed=0.0311x elapsed=0:03:30.91    \nframe=  330 fps=1.6 q=32.0 size=    3072KiB time=00:00:06.58 bitrate=3824.6kbits/s speed=0.0311x elapsed=0:03:31.48    \nframe=  331 fps=1.6 q=40.0 size=    3072KiB time=00:00:06.60 bitrate=3813.0kbits/s speed=0.0311x elapsed=0:03:32.08    \nframe=  331 fps=1.6 q=40.0 size=    3072KiB time=00:00:06.60 bitrate=3813.0kbits/s speed=0.031x elapsed=0:03:32.66    \nframe=  331 fps=1.6 q=40.0 size=    3072KiB time=00:00:06.60 bitrate=3813.0kbits/s speed=0.031x elapsed=0:03:33.24    \nframe=  331 fps=1.5 q=40.0 size=    3072KiB time=00:00:06.60 bitrate=3813.0kbits/s speed=0.0309x elapsed=0:03:33.79    \nframe=  332 fps=1.5 q=41.0 size=    3072KiB time=00:00:06.62 bitrate=3801.5kbits/s speed=0.0309x elapsed=0:03:34.36    \nframe=  332 fps=1.5 q=41.0 size=    3072KiB time=00:00:06.62 bitrate=3801.5kbits/s speed=0.0308x elapsed=0:03:34.92    \nframe=  333 fps=1.5 q=39.0 size=    3072KiB time=00:00:06.64 bitrate=3790.0kbits/s speed=0.0308x elapsed=0:03:35.49    \nframe=  333 fps=1.5 q=39.0 size=    3072KiB time=00:00:06.64 bitrate=3790.0kbits/s speed=0.0307x elapsed=0:03:36.06    \nframe=  335 fps=1.5 q=39.0 size=    3072KiB time=00:00:06.68 bitrate=3767.3kbits/s speed=0.0308x elapsed=0:03:36.65    \nframe=  335 fps=1.5 q=39.0 size=    3072KiB time=00:00:06.68 bitrate=3767.3kbits/s speed=0.0308x elapsed=0:03:37.21    \nframe=  336 fps=1.5 q=40.0 size=    3072KiB time=00:00:06.70 bitrate=3756.1kbits/s speed=0.0308x elapsed=0:03:37.77    \nframe=  336 fps=1.5 q=40.0 size=    3072KiB time=00:00:06.70 bitrate=3756.1kbits/s speed=0.0307x elapsed=0:03:38.36    \nframe=  337 fps=1.5 q=39.0 size=    3072KiB time=00:00:06.72 bitrate=3744.9kbits/s speed=0.0307x elapsed=0:03:38.94    \nframe=  337 fps=1.5 q=39.0 size=    3072KiB time=00:00:06.72 bitrate=3744.9kbits/s speed=0.0306x elapsed=0:03:39.51    \nframe=  338 fps=1.5 q=24.0 size=    3072KiB time=00:00:06.74 bitrate=3733.8kbits/s speed=0.0306x elapsed=0:03:40.06    \nframe=  341 fps=1.5 q=39.0 size=    3072KiB time=00:00:06.78 bitrate=3711.8kbits/s speed=0.0307x elapsed=0:03:40.62    \nframe=  342 fps=1.5 q=39.0 size=    3072KiB time=00:00:06.82 bitrate=3690.0kbits/s speed=0.0308x elapsed=0:03:41.17    \nframe=  343 fps=1.5 q=39.0 size=    3072KiB time=00:00:06.84 bitrate=3679.2kbits/s speed=0.0308x elapsed=0:03:41.75    \nframe=  343 fps=1.5 q=39.0 size=    3072KiB time=00:00:06.84 bitrate=3679.2kbits/s speed=0.0308x elapsed=0:03:42.31    \nframe=  344 fps=1.5 q=39.0 size=    3072KiB time=00:00:06.86 bitrate=3668.5kbits/s speed=0.0308x elapsed=0:03:42.87    \nframe=  344 fps=1.5 q=39.0 size=    3072KiB time=00:00:06.86 bitrate=3668.5kbits/s speed=0.0307x elapsed=0:03:43.44    \nframe=  344 fps=1.5 q=39.0 size=    3072KiB time=00:00:06.86 bitrate=3668.5kbits/s speed=0.0306x elapsed=0:03:43.99    \nframe=  345 fps=1.5 q=39.0 size=    3072KiB time=00:00:06.88 bitrate=3657.8kbits/s speed=0.0306x elapsed=0:03:44.58    \nframe=  346 fps=1.5 q=34.0 size=    3072KiB time=00:00:06.90 bitrate=3647.2kbits/s speed=0.0306x elapsed=0:03:45.16    \nframe=  346 fps=1.5 q=34.0 size=    3072KiB time=00:00:06.90 bitrate=3647.2kbits/s speed=0.0306x elapsed=0:03:45.77    \nframe=  347 fps=1.5 q=38.0 size=    3072KiB time=00:00:06.92 bitrate=3636.7kbits/s speed=0.0306x elapsed=0:03:46.36    \nframe=  347 fps=1.5 q=38.0 size=    3072KiB time=00:00:06.92 bitrate=3636.7kbits/s speed=0.0305x elapsed=0:03:46.94    \nframe=  347 fps=1.5 q=38.0 size=    3072KiB time=00:00:06.92 bitrate=3636.7kbits/s speed=0.0304x elapsed=0:03:47.54    \nframe=  348 fps=1.5 q=38.0 size=    3072KiB time=00:00:06.92 bitrate=3636.7kbits/s speed=0.0303x elapsed=0:03:48.14    \nframe=  348 fps=1.5 q=38.0 size=    3072KiB time=00:00:06.94 bitrate=3626.2kbits/s speed=0.0303x elapsed=0:03:48.72    \nframe=  348 fps=1.5 q=38.0 size=    3072KiB time=00:00:06.94 bitrate=3626.2kbits/s speed=0.0303x elapsed=0:03:49.31    \nframe=  349 fps=1.5 q=38.0 size=    3072KiB time=00:00:06.96 bitrate=3615.8kbits/s speed=0.0303x elapsed=0:03:49.90    \nframe=  351 fps=1.5 q=38.0 size=    3072KiB time=00:00:06.98 bitrate=3605.4kbits/s speed=0.0303x elapsed=0:03:50.64    \nframe=  352 fps=1.5 q=37.0 size=    3072KiB time=00:00:07.02 bitrate=3584.9kbits/s speed=0.0303x elapsed=0:03:51.75    \nframe=  354 fps=1.5 q=26.0 size=    3072KiB time=00:00:07.04 bitrate=3574.7kbits/s speed=0.0302x elapsed=0:03:52.86    \nframe=  357 fps=1.5 q=32.0 size=    3072KiB time=00:00:07.10 bitrate=3544.5kbits/s speed=0.0303x elapsed=0:03:54.07    \nframe=  358 fps=1.5 q=39.0 size=    3072KiB time=00:00:07.14 bitrate=3524.6kbits/s speed=0.0304x elapsed=0:03:54.72    \nframe=  358 fps=1.5 q=39.0 size=    3072KiB time=00:00:07.14 bitrate=3524.6kbits/s speed=0.0304x elapsed=0:03:55.23    \nframe=  359 fps=1.5 q=38.0 size=    3072KiB time=00:00:07.16 bitrate=3514.8kbits/s speed=0.0304x elapsed=0:03:55.75    \nframe=  360 fps=1.5 q=37.0 size=    3072KiB time=00:00:07.18 bitrate=3505.0kbits/s speed=0.0304x elapsed=0:03:56.27    \nframe=  360 fps=1.5 q=37.0 size=    3072KiB time=00:00:07.18 bitrate=3505.0kbits/s speed=0.0303x elapsed=0:03:56.78    \nframe=  361 fps=1.5 q=38.0 size=    3072KiB time=00:00:07.20 bitrate=3495.3kbits/s speed=0.0303x elapsed=0:03:57.30    \nframe=  362 fps=1.5 q=34.0 size=    3072KiB time=00:00:07.22 bitrate=3485.6kbits/s speed=0.0304x elapsed=0:03:57.82    \nframe=  362 fps=1.5 q=34.0 size=    3072KiB time=00:00:07.22 bitrate=3485.6kbits/s speed=0.0303x elapsed=0:03:58.33    \nframe=  363 fps=1.5 q=39.0 size=    3072KiB time=00:00:07.24 bitrate=3475.9kbits/s speed=0.0303x elapsed=0:03:58.85    \nframe=  363 fps=1.5 q=39.0 size=    3072KiB time=00:00:07.24 bitrate=3475.9kbits/s speed=0.0302x elapsed=0:03:59.36    \nframe=  364 fps=1.5 q=39.0 size=    3072KiB time=00:00:07.26 bitrate=3466.4kbits/s speed=0.0303x elapsed=0:03:59.87    \nframe=  365 fps=1.5 q=36.0 size=    3072KiB time=00:00:07.28 bitrate=3456.8kbits/s speed=0.0303x elapsed=0:04:00.39    \nframe=  366 fps=1.5 q=38.0 size=    3072KiB time=00:00:07.30 bitrate=3447.4kbits/s speed=0.0303x elapsed=0:04:00.91    \nframe=  368 fps=1.5 q=37.0 size=    3072KiB time=00:00:07.34 bitrate=3428.6kbits/s speed=0.0304x elapsed=0:04:01.42    \nframe=  369 fps=1.5 q=38.0 size=    3072KiB time=00:00:07.36 bitrate=3419.3kbits/s speed=0.0304x elapsed=0:04:01.94    \nframe=  370 fps=1.5 q=25.0 size=    3072KiB time=00:00:07.38 bitrate=3410.0kbits/s speed=0.0304x elapsed=0:04:02.45    \nframe=  372 fps=1.5 q=39.0 size=    3072KiB time=00:00:07.42 bitrate=3391.6kbits/s speed=0.0305x elapsed=0:04:02.97    \nframe=  372 fps=1.5 q=39.0 size=    3072KiB time=00:00:07.42 bitrate=3391.6kbits/s speed=0.0305x elapsed=0:04:03.49    \nframe=  373 fps=1.5 q=39.0 size=    3072KiB time=00:00:07.44 bitrate=3382.5kbits/s speed=0.0305x elapsed=0:04:04.00    \nframe=  374 fps=1.5 q=39.0 size=    3072KiB time=00:00:07.46 bitrate=3373.4kbits/s speed=0.0305x elapsed=0:04:04.52    \nframe=  376 fps=1.5 q=38.0 size=    3072KiB time=00:00:07.50 bitrate=3355.4kbits/s speed=0.0306x elapsed=0:04:05.03    \nframe=  376 fps=1.5 q=38.0 size=    3072KiB time=00:00:07.50 bitrate=3355.4kbits/s speed=0.0305x elapsed=0:04:05.55    \nframe=  377 fps=1.5 q=38.0 size=    3072KiB time=00:00:07.52 bitrate=3346.5kbits/s speed=0.0306x elapsed=0:04:06.07    \nframe=  379 fps=1.5 q=38.0 size=    3072KiB time=00:00:07.56 bitrate=3328.8kbits/s speed=0.0307x elapsed=0:04:06.58    \nframe=  379 fps=1.5 q=38.0 size=    3072KiB time=00:00:07.56 bitrate=3328.8kbits/s speed=0.0306x elapsed=0:04:07.09    \nframe=  379 fps=1.5 q=38.0 size=    3072KiB time=00:00:07.56 bitrate=3328.8kbits/s speed=0.0305x elapsed=0:04:07.61    \nframe=  380 fps=1.5 q=38.0 size=    3072KiB time=00:00:07.58 bitrate=3320.0kbits/s speed=0.0305x elapsed=0:04:08.13    \nframe=  380 fps=1.5 q=38.0 size=    3072KiB time=00:00:07.58 bitrate=3320.0kbits/s speed=0.0305x elapsed=0:04:08.64    \nframe=  381 fps=1.5 q=38.0 size=    3072KiB time=00:00:07.60 bitrate=3311.3kbits/s speed=0.0305x elapsed=0:04:09.16    \nframe=  382 fps=1.5 q=38.0 size=    3072KiB time=00:00:07.62 bitrate=3302.6kbits/s speed=0.0305x elapsed=0:04:09.68    \nframe=  384 fps=1.5 q=39.0 size=    3072KiB time=00:00:07.66 bitrate=3285.4kbits/s speed=0.0306x elapsed=0:04:10.19    \nframe=  384 fps=1.5 q=39.0 size=    3072KiB time=00:00:07.66 bitrate=3285.4kbits/s speed=0.0306x elapsed=0:04:10.70    \nframe=  385 fps=1.5 q=39.0 size=    3072KiB time=00:00:07.68 bitrate=3276.8kbits/s speed=0.0306x elapsed=0:04:11.21    \nframe=  386 fps=1.5 q=25.0 size=    3072KiB time=00:00:07.70 bitrate=3268.3kbits/s speed=0.0306x elapsed=0:04:11.73    \nframe=  387 fps=1.5 q=39.0 size=    3072KiB time=00:00:07.72 bitrate=3259.8kbits/s speed=0.0306x elapsed=0:04:12.25    \nframe=  389 fps=1.5 q=39.0 size=    3072KiB time=00:00:07.76 bitrate=3243.0kbits/s speed=0.0307x elapsed=0:04:12.77    \nframe=  390 fps=1.5 q=39.0 size=    3072KiB time=00:00:07.78 bitrate=3234.7kbits/s speed=0.0307x elapsed=0:04:13.28    \nframe=  406 fps=1.6 q=39.0 size=    3072KiB time=00:00:08.10 bitrate=3106.9kbits/s speed=0.0319x elapsed=0:04:13.79    \nframe=  406 fps=1.6 q=39.0 size=    3072KiB time=00:00:08.10 bitrate=3106.9kbits/s speed=0.0318x elapsed=0:04:14.32    \nframe=  408 fps=1.6 q=39.0 size=    3072KiB time=00:00:08.14 bitrate=3091.6kbits/s speed=0.0319x elapsed=0:04:14.83    \nframe=  410 fps=1.6 q=35.0 size=    3072KiB time=00:00:08.18 bitrate=3076.5kbits/s speed=0.032x elapsed=0:04:15.34    \nframe=  410 fps=1.6 q=35.0 size=    3072KiB time=00:00:08.18 bitrate=3076.5kbits/s speed=0.032x elapsed=0:04:15.86    \nframe=  410 fps=1.6 q=35.0 size=    3072KiB time=00:00:08.18 bitrate=3076.5kbits/s speed=0.0319x elapsed=0:04:16.37    \nframe=  410 fps=1.6 q=35.0 size=    3072KiB time=00:00:08.18 bitrate=3076.5kbits/s speed=0.0318x elapsed=0:04:16.90    \nframe=  410 fps=1.6 q=35.0 size=    3072KiB time=00:00:08.18 bitrate=3076.5kbits/s speed=0.0318x elapsed=0:04:17.41    \nframe=  410 fps=1.6 q=35.0 size=    3072KiB time=00:00:08.18 bitrate=3076.5kbits/s speed=0.0317x elapsed=0:04:17.92    \nframe=  412 fps=1.6 q=39.0 size=    3072KiB time=00:00:08.22 bitrate=3061.5kbits/s speed=0.0318x elapsed=0:04:18.44    \nframe=  414 fps=1.6 q=38.0 size=    3072KiB time=00:00:08.26 bitrate=3046.7kbits/s speed=0.0319x elapsed=0:04:18.96    \nframe=  414 fps=1.6 q=38.0 size=    3072KiB time=00:00:08.26 bitrate=3046.7kbits/s speed=0.0318x elapsed=0:04:19.47    \nframe=  414 fps=1.6 q=38.0 size=    3072KiB time=00:00:08.26 bitrate=3046.7kbits/s speed=0.0318x elapsed=0:04:19.98    \nframe=  416 fps=1.6 q=38.0 size=    3072KiB time=00:00:08.30 bitrate=3032.0kbits/s speed=0.0319x elapsed=0:04:20.50    \nframe=  418 fps=1.6 q=25.0 size=    3072KiB time=00:00:08.34 bitrate=3017.5kbits/s speed=0.032x elapsed=0:04:21.02    \nframe=  418 fps=1.6 q=25.0 size=    3072KiB time=00:00:08.34 bitrate=3017.5kbits/s speed=0.0319x elapsed=0:04:21.53    \nframe=  418 fps=1.6 q=25.0 size=    3072KiB time=00:00:08.34 bitrate=3017.5kbits/s speed=0.0318x elapsed=0:04:22.04    \nframe=  420 fps=1.6 q=39.0 size=    3072KiB time=00:00:08.38 bitrate=3003.1kbits/s speed=0.0319x elapsed=0:04:22.57    \nframe=  422 fps=1.6 q=39.0 size=    3072KiB time=00:00:08.42 bitrate=2988.8kbits/s speed=0.032x elapsed=0:04:23.08    \nframe=  422 fps=1.6 q=39.0 size=    3072KiB time=00:00:08.42 bitrate=2988.8kbits/s speed=0.0319x elapsed=0:04:23.59    \nframe=  424 fps=1.6 q=39.0 size=    3072KiB time=00:00:08.46 bitrate=2974.7kbits/s speed=0.032x elapsed=0:04:24.11    \nframe=  426 fps=1.6 q=34.0 size=    3072KiB time=00:00:08.50 bitrate=2960.7kbits/s speed=0.0321x elapsed=0:04:24.63    \nframe=  426 fps=1.6 q=34.0 size=    3072KiB time=00:00:08.50 bitrate=2960.7kbits/s speed=0.0321x elapsed=0:04:25.15    \nframe=  426 fps=1.6 q=34.0 size=    3072KiB time=00:00:08.50 bitrate=2960.7kbits/s speed=0.032x elapsed=0:04:25.66    \nframe=  426 fps=1.6 q=34.0 size=    3072KiB time=00:00:08.50 bitrate=2960.7kbits/s speed=0.0319x elapsed=0:04:26.17    \nframe=  428 fps=1.6 q=39.0 size=    3072KiB time=00:00:08.54 bitrate=2946.8kbits/s speed=0.032x elapsed=0:04:26.69    \nframe=  430 fps=1.6 q=38.0 size=    3072KiB time=00:00:08.58 bitrate=2933.1kbits/s speed=0.0321x elapsed=0:04:27.20    \nframe=  430 fps=1.6 q=38.0 size=    3072KiB time=00:00:08.58 bitrate=2933.1kbits/s speed=0.032x elapsed=0:04:27.72    \nframe=  432 fps=1.6 q=38.0 size=    3072KiB time=00:00:08.62 bitrate=2919.5kbits/s speed=0.0321x elapsed=0:04:28.23    \nframe=  434 fps=1.6 q=25.0 size=    3072KiB time=00:00:08.66 bitrate=2906.0kbits/s speed=0.0322x elapsed=0:04:28.75    \nframe=  434 fps=1.6 q=25.0 size=    3072KiB time=00:00:08.66 bitrate=2906.0kbits/s speed=0.0322x elapsed=0:04:29.27    \nframe=  436 fps=1.6 q=40.0 size=    3072KiB time=00:00:08.70 bitrate=2892.6kbits/s speed=0.0322x elapsed=0:04:29.78    \nframe=  438 fps=1.6 q=39.0 size=    3072KiB time=00:00:08.74 bitrate=2879.4kbits/s speed=0.0323x elapsed=0:04:30.29    \nframe=  438 fps=1.6 q=39.0 size=    3072KiB time=00:00:08.74 bitrate=2879.4kbits/s speed=0.0323x elapsed=0:04:30.81    \nframe=  438 fps=1.6 q=39.0 size=    3072KiB time=00:00:08.74 bitrate=2879.4kbits/s speed=0.0322x elapsed=0:04:31.36    \nframe=  440 fps=1.6 q=39.0 size=    3072KiB time=00:00:08.78 bitrate=2866.3kbits/s speed=0.0323x elapsed=0:04:31.92    \nframe=  442 fps=1.6 q=34.0 size=    3072KiB time=00:00:08.82 bitrate=2853.3kbits/s speed=0.0324x elapsed=0:04:32.43    \nframe=  442 fps=1.6 q=34.0 size=    3072KiB time=00:00:08.82 bitrate=2853.3kbits/s speed=0.0323x elapsed=0:04:32.97    \nframe=  442 fps=1.6 q=34.0 size=    3072KiB time=00:00:08.82 bitrate=2853.3kbits/s speed=0.0322x elapsed=0:04:33.51    \nframe=  442 fps=1.6 q=34.0 size=    3072KiB time=00:00:08.82 bitrate=2853.3kbits/s speed=0.0322x elapsed=0:04:34.02    \nframe=  444 fps=1.6 q=40.0 size=    3072KiB time=00:00:08.86 bitrate=2840.4kbits/s speed=0.0323x elapsed=0:04:34.59    \nframe=  446 fps=1.6 q=38.0 size=    3072KiB time=00:00:08.90 bitrate=2827.6kbits/s speed=0.0323x elapsed=0:04:35.11    \nframe=  446 fps=1.6 q=38.0 size=    3072KiB time=00:00:08.90 bitrate=2827.6kbits/s speed=0.0323x elapsed=0:04:35.67    \nframe=  450 fps=1.6 q=24.0 size=    3072KiB time=00:00:08.98 bitrate=2802.4kbits/s speed=0.0325x elapsed=0:04:36.21    \nframe=  450 fps=1.6 q=24.0 size=    3072KiB time=00:00:08.98 bitrate=2802.4kbits/s speed=0.0324x elapsed=0:04:36.73    \nframe=  450 fps=1.6 q=24.0 size=    3072KiB time=00:00:08.98 bitrate=2802.4kbits/s speed=0.0324x elapsed=0:04:37.26    \nframe=  450 fps=1.6 q=24.0 size=    3072KiB time=00:00:08.98 bitrate=2802.4kbits/s speed=0.0323x elapsed=0:04:37.80    \nframe=  452 fps=1.6 q=38.0 size=    3072KiB time=00:00:09.02 bitrate=2790.0kbits/s speed=0.0324x elapsed=0:04:38.32    \nframe=  454 fps=1.6 q=38.0 size=    3072KiB time=00:00:09.06 bitrate=2777.7kbits/s speed=0.0325x elapsed=0:04:38.83    \nframe=  454 fps=1.6 q=38.0 size=    3072KiB time=00:00:09.06 bitrate=2777.7kbits/s speed=0.0324x elapsed=0:04:39.34    \nframe=  458 fps=1.6 q=33.0 size=    3072KiB time=00:00:09.14 bitrate=2753.4kbits/s speed=0.0327x elapsed=0:04:39.87    \nframe=  458 fps=1.6 q=33.0 size=    3072KiB time=00:00:09.14 bitrate=2753.4kbits/s speed=0.0326x elapsed=0:04:40.39    \nframe=  458 fps=1.6 q=33.0 size=    3072KiB time=00:00:09.14 bitrate=2753.4kbits/s speed=0.0325x elapsed=0:04:40.92    \nframe=  458 fps=1.6 q=33.0 size=    3072KiB time=00:00:09.14 bitrate=2753.4kbits/s speed=0.0325x elapsed=0:04:41.48    \nframe=  460 fps=1.6 q=38.0 size=    3072KiB time=00:00:09.18 bitrate=2741.4kbits/s speed=0.0326x elapsed=0:04:42.00    \nframe=  462 fps=1.6 q=37.0 size=    3072KiB time=00:00:09.22 bitrate=2729.5kbits/s speed=0.0326x elapsed=0:04:42.53    \nframe=  462 fps=1.6 q=37.0 size=    3072KiB time=00:00:09.22 bitrate=2729.5kbits/s speed=0.0326x elapsed=0:04:43.11    \nframe=  464 fps=1.6 q=39.0 size=    3072KiB time=00:00:09.26 bitrate=2717.7kbits/s speed=0.0326x elapsed=0:04:43.70    \nframe=  466 fps=1.6 q=25.0 size=    3072KiB time=00:00:09.30 bitrate=2706.0kbits/s speed=0.0327x elapsed=0:04:44.33    \nframe=  466 fps=1.6 q=25.0 size=    3072KiB time=00:00:09.30 bitrate=2706.0kbits/s speed=0.0326x elapsed=0:04:44.87    \nframe=  468 fps=1.6 q=39.0 size=    3072KiB time=00:00:09.34 bitrate=2694.4kbits/s speed=0.0327x elapsed=0:04:45.39    \nframe=  470 fps=1.6 q=39.0 size=    3072KiB time=00:00:09.38 bitrate=2682.9kbits/s speed=0.0328x elapsed=0:04:45.90    \nframe=  470 fps=1.6 q=39.0 size=    3072KiB time=00:00:09.38 bitrate=2682.9kbits/s speed=0.0327x elapsed=0:04:46.47    \nframe=  472 fps=1.6 q=38.0 size=    3072KiB time=00:00:09.42 bitrate=2671.5kbits/s speed=0.0328x elapsed=0:04:47.02    \nframe=  474 fps=1.6 q=33.0 size=    3072KiB time=00:00:09.46 bitrate=2660.2kbits/s speed=0.0329x elapsed=0:04:47.60    \nframe=  474 fps=1.6 q=33.0 size=    3072KiB time=00:00:09.46 bitrate=2660.2kbits/s speed=0.0328x elapsed=0:04:48.14    \nframe=  474 fps=1.6 q=33.0 size=    3072KiB time=00:00:09.46 bitrate=2660.2kbits/s speed=0.0328x elapsed=0:04:48.72    \nframe=  476 fps=1.6 q=39.0 size=    3072KiB time=00:00:09.50 bitrate=2649.0kbits/s speed=0.0328x elapsed=0:04:49.32    \nframe=  478 fps=1.6 q=39.0 size=    3072KiB time=00:00:09.54 bitrate=2637.9kbits/s speed=0.0329x elapsed=0:04:49.83    \nframe=  478 fps=1.6 q=39.0 size=    3072KiB time=00:00:09.54 bitrate=2637.9kbits/s speed=0.0328x elapsed=0:04:50.44    \nframe=  482 fps=1.7 q=24.0 size=    3072KiB time=00:00:09.62 bitrate=2616.0kbits/s speed=0.033x elapsed=0:04:51.07    \nframe=  482 fps=1.7 q=24.0 size=    3072KiB time=00:00:09.62 bitrate=2616.0kbits/s speed=0.033x elapsed=0:04:51.67    \nframe=  484 fps=1.7 q=40.0 size=    3072KiB time=00:00:09.66 bitrate=2605.2kbits/s speed=0.0331x elapsed=0:04:52.22    \nframe=  486 fps=1.7 q=41.0 size=    3072KiB time=00:00:09.70 bitrate=2594.4kbits/s speed=0.0331x elapsed=0:04:52.79    \nframe=  486 fps=1.7 q=41.0 size=    3072KiB time=00:00:09.70 bitrate=2594.4kbits/s speed=0.0331x elapsed=0:04:53.39    \nframe=  490 fps=1.7 q=37.0 size=    3072KiB time=00:00:09.78 bitrate=2573.2kbits/s speed=0.0333x elapsed=0:04:54.04    \nframe=  490 fps=1.7 q=37.0 size=    3072KiB time=00:00:09.78 bitrate=2573.2kbits/s speed=0.0332x elapsed=0:04:54.70    \nframe=  490 fps=1.7 q=37.0 size=    3072KiB time=00:00:09.78 bitrate=2573.2kbits/s speed=0.0331x elapsed=0:04:55.33    \nframe=  492 fps=1.7 q=40.0 size=    3072KiB time=00:00:09.82 bitrate=2562.7kbits/s speed=0.0332x elapsed=0:04:55.89    \nframe=  494 fps=1.7 q=41.0 size=    3072KiB time=00:00:09.86 bitrate=2552.3kbits/s speed=0.0333x elapsed=0:04:56.46    \nframe=  496 fps=1.7 q=40.0 size=    3072KiB time=00:00:09.90 bitrate=2542.0kbits/s speed=0.0333x elapsed=0:04:56.97    \n[out#0/matroska @ 0000020f4fe89080] video:4773KiB audio:0KiB subtitle:0KiB other streams:0KiB global headers:0KiB muxing overhead: 0.060826%\nframe=  500 fps=1.7 q=36.0 Lsize=    4776KiB time=00:00:09.98 bitrate=3920.4kbits/s speed=0.0336x elapsed=0:04:57.35    \n",
  "seconds": 298.81756043434143,
  "probe_out": {}
}